<?xml version="1.0" encoding="UTF-8"?>
<svg xmlns="http://www.w3.org/2000/svg" width="244.495" height="40" viewBox="0 0 244.495 40">
  <g id="Group_29188" data-name="Group 29188" transform="translate(8015 53)">
    <rect id="Rectangle_19021" data-name="Rectangle 19021" width="40" height="40" rx="4" transform="translate(-8015 -53)" fill="#f5e9dc"></rect>
    <path id="Path_25675" data-name="Path 25675" d="M9.542.195H4.259L3.255,3H.051L5.495-10.623H8.287L13.76,3h-3.2ZM5.073-2.079H8.728L6.891-7.18Zm21.321.543a4.7,4.7,0,0,1-1.742,3.463,6.414,6.414,0,0,1-4.143,1.263,5.693,5.693,0,0,1-4.424-1.764,6.909,6.909,0,0,1-1.612-4.843V-4.25a7.692,7.692,0,0,1,.743-3.463,5.316,5.316,0,0,1,2.124-2.3,6.285,6.285,0,0,1,3.209-.8,6.244,6.244,0,0,1,4.077,1.263A5.05,5.05,0,0,1,26.414-6H23.4a2.745,2.745,0,0,0-.788-1.914,3.062,3.062,0,0,0-2.064-.594A2.629,2.629,0,0,0,18.294-7.5a5.335,5.335,0,0,0-.768,3.121v1.029a5.7,5.7,0,0,0,.718,3.229A2.577,2.577,0,0,0,20.509.9,3.121,3.121,0,0,0,22.593.3a2.594,2.594,0,0,0,.788-1.839ZM39.089-8.349H34.609V3H31.6V-8.349H27.178v-2.274H39.089ZM44.01,3H41V-10.623H44.01ZM52.2-.376l3.314-10.247h3.354L53.782,3H50.638L45.566-10.623h3.344ZM69.047-2.9H63.262V.747h6.789V3h-9.8V-10.623h9.782v2.274H63.262V-5.1h5.785Z" transform="translate(-7967.051 -29.189)" fill="#baa185"></path>
    <path id="Path_25674" data-name="Path 25674" d="M9.52-2.9H3.886V.747H10.5V3H.952V-10.623h9.526v2.274H3.886V-5.1H9.52ZM23.4-1.536a4.742,4.742,0,0,1-1.7,3.463,6.135,6.135,0,0,1-4.035,1.263,5.472,5.472,0,0,1-4.308-1.764,7.026,7.026,0,0,1-1.57-4.843V-4.25a7.866,7.866,0,0,1,.724-3.463,5.264,5.264,0,0,1,2.069-2.3,6,6,0,0,1,3.125-.8,5.974,5.974,0,0,1,3.971,1.263A5.1,5.1,0,0,1,23.419-6H20.484a2.781,2.781,0,0,0-.768-1.914,2.928,2.928,0,0,0-2.01-.594,2.534,2.534,0,0,0-2.2,1.006,5.446,5.446,0,0,0-.748,3.121v1.029a5.82,5.82,0,0,0,.7,3.229A2.485,2.485,0,0,0,17.667.9,2.984,2.984,0,0,0,19.7.3a2.626,2.626,0,0,0,.768-1.839ZM37.024-3.5A7.922,7.922,0,0,1,36.28.026a5.436,5.436,0,0,1-2.127,2.34,6.087,6.087,0,0,1-3.174.824,6.129,6.129,0,0,1-3.159-.814A5.5,5.5,0,0,1,25.668.05,7.7,7.7,0,0,1,24.9-3.427V-4.1a7.882,7.882,0,0,1,.758-3.542A5.482,5.482,0,0,1,27.8-9.992a6.1,6.1,0,0,1,3.164-.819,6.1,6.1,0,0,1,3.164.819,5.482,5.482,0,0,1,2.142,2.349,7.86,7.86,0,0,1,.758,3.533ZM34.05-4.119a5.54,5.54,0,0,0-.8-3.257A2.651,2.651,0,0,0,30.959-8.49a2.653,2.653,0,0,0-2.279,1.1,5.478,5.478,0,0,0-.812,3.224V-3.5a5.609,5.609,0,0,0,.8,3.238A2.641,2.641,0,0,0,30.979.887,2.62,2.62,0,0,0,33.248-.222a5.577,5.577,0,0,0,.8-3.233Zm8.94-6.5L46.648-.741l3.638-9.882H54.14V3H51.2V-.722l.293-6.429L47.645,3H45.631L41.8-7.142l.293,6.42V3H39.156V-10.623Zm17.547,0L64.194-.741l3.638-9.882h3.854V3H68.743V-.722l.293-6.429L65.192,3H63.177L59.343-7.142l.293,6.42V3H56.7V-10.623ZM82.817-2.9H77.183V.747H83.8V3H74.249V-10.623h9.526v2.274H77.183V-5.1h5.634Zm7.971.917H88.451V3H85.516V-10.623h5.291A6.173,6.173,0,0,1,94.7-9.547,3.645,3.645,0,0,1,96.07-6.506a4.054,4.054,0,0,1-.631,2.326A4.268,4.268,0,0,1,93.527-2.7l3.081,5.568V3H93.458ZM88.451-4.26h2.367A2.494,2.494,0,0,0,92.529-4.8a1.881,1.881,0,0,0,.606-1.483A2.008,2.008,0,0,0,92.564-7.8a2.445,2.445,0,0,0-1.756-.552H88.451Zm21.029,2.723a4.742,4.742,0,0,1-1.7,3.463,6.135,6.135,0,0,1-4.035,1.263,5.472,5.472,0,0,1-4.308-1.764,7.026,7.026,0,0,1-1.57-4.843V-4.25a7.866,7.866,0,0,1,.724-3.463,5.264,5.264,0,0,1,2.069-2.3,6,6,0,0,1,3.125-.8,5.974,5.974,0,0,1,3.971,1.263A5.1,5.1,0,0,1,109.5-6h-2.934a2.781,2.781,0,0,0-.768-1.914,2.928,2.928,0,0,0-2.01-.594,2.534,2.534,0,0,0-2.2,1.006,5.445,5.445,0,0,0-.748,3.121v1.029a5.82,5.82,0,0,0,.7,3.229A2.485,2.485,0,0,0,103.748.9,2.984,2.984,0,0,0,105.777.3a2.626,2.626,0,0,0,.768-1.839ZM119.974-2.9H114.34V.747h6.612V3h-9.546V-10.623h9.526v2.274H114.34V-5.1h5.634Z" transform="translate(-7891.952 -29.189)" fill="#a98e69"></path>
    <g id="Group_23840" data-name="Group 23840" transform="translate(-16087 991)">
      <path id="Path_25662" data-name="Path 25662" d="M201.681,126.536a1.125,1.125,0,0,0-1.121-1.035H187.44a1.125,1.125,0,0,0-1.121,1.035L185,143.036a1.125,1.125,0,0,0,1.032,1.211c.03,0,.059,0,.089,0h15.75A1.125,1.125,0,0,0,203,143.125c0-.03,0-.059,0-.09Z" transform="translate(7898 -1157.25)" fill="#a98e69"></path>
      <g id="CIRCLE" transform="translate(8086.75 -1030.25)">
        <path id="Path_25676" data-name="Path 25676" d="M192.5,129.625a1.125,1.125,0,1,1,1.125,1.125,1.125,1.125,0,0,1-1.125-1.125Z" transform="translate(-192.5 -128.5)" fill="#f1e8ff" stroke="rgba(0,0,0,0)" stroke-miterlimit="10" stroke-width="1"></path>
      </g>
      <g id="CIRCLE-2" data-name="CIRCLE" transform="translate(8095 -1030.25)">
        <path id="Path_25677" data-name="Path 25677" d="M209,129.625a1.125,1.125,0,1,1,1.125,1.125A1.125,1.125,0,0,1,209,129.625Z" transform="translate(-209 -128.5)" fill="#f1e8ff" stroke="rgba(0,0,0,0)" stroke-miterlimit="10" stroke-width="1"></path>
      </g>
      <g id="Group_22071" data-name="Group 22071" transform="translate(8087.313 -1026.125)">
        <g id="LWPOLYLINE" transform="translate(0 3.19)">
          <path id="Path_25678" data-name="Path 25678" d="M194,143.129a.375.375,0,0,0,0,.751h1.313a.375.375,0,0,0,0-.751Z" transform="translate(-193.625 -143.129)" fill="#f1e8ff" stroke="rgba(0,0,0,0)" stroke-miterlimit="10" stroke-width="1"></path>
        </g>
        <g id="LWPOLYLINE-2" data-name="LWPOLYLINE" transform="translate(3.15)">
          <path id="Path_25679" data-name="Path 25679" d="M199.926,137.125a.375.375,0,0,1,.75,0v1.313a.375.375,0,0,1-.75,0Z" transform="translate(-199.926 -136.75)" fill="#f1e8ff" stroke="rgba(0,0,0,0)" stroke-miterlimit="10" stroke-width="1"></path>
        </g>
        <g id="LWPOLYLINE-3" data-name="LWPOLYLINE" transform="translate(4.507 0.925)">
          <path id="Path_25680" data-name="Path 25680" d="M204.208,139.241a.375.375,0,0,0-.531-.53l-.928.928a.375.375,0,0,0,.531.531Z" transform="translate(-202.638 -138.6)" fill="#f1e8ff" stroke="rgba(0,0,0,0)" stroke-miterlimit="10" stroke-width="1"></path>
        </g>
        <g id="LWPOLYLINE-4" data-name="LWPOLYLINE" transform="translate(0.944 0.925)">
          <path id="Path_25681" data-name="Path 25681" d="M195.622,139.241a.375.375,0,0,1,.531-.53l.928.928a.375.375,0,0,1-.53.531Z" transform="translate(-195.512 -138.6)" fill="#f1e8ff" stroke="rgba(0,0,0,0)" stroke-miterlimit="10" stroke-width="1"></path>
        </g>
        <g id="LWPOLYLINE-5" data-name="LWPOLYLINE" transform="translate(0.944 4.525)">
          <path id="Path_25682" data-name="Path 25682" d="M195.622,146.839a.375.375,0,0,0,.531.531l.928-.929a.375.375,0,0,0-.53-.531Z" transform="translate(-195.512 -145.8)" fill="#f1e8ff" stroke="rgba(0,0,0,0)" stroke-miterlimit="10" stroke-width="1"></path>
        </g>
        <path id="Path_25683" data-name="Path 25683" d="M205.844,147.376l-1.613-1.613.743-.406a.375.375,0,0,0-.037-.676l-4.888-2a.375.375,0,0,0-.489.489l2,4.888a.375.375,0,0,0,.676.038l.405-.744,1.613,1.612a.376.376,0,0,0,.531,0l1.061-1.061A.376.376,0,0,0,205.844,147.376Zm-1.329.786-1.7-1.7a.375.375,0,0,0-.595.085l-.267.491-1.36-3.328,3.327,1.36-.49.267a.375.375,0,0,0-.15.509.4.4,0,0,0,.064.086l1.7,1.7Z" transform="translate(-196.579 -139.703)" fill="#f1e8ff" stroke="rgba(0,0,0,0)" stroke-miterlimit="10" stroke-width="1"></path>
      </g>
      <path id="Path_25665" data-name="Path 25665" d="M202.063,119.5v.75H203v-.75a4.5,4.5,0,0,0-9,0v.75h.938v-.75a3.563,3.563,0,0,1,7.125,0Z" transform="translate(7893.5 -1152)" fill="#a98e69"></path>
    </g>
    <path id="Path_41593" data-name="Path 41593" d="M-17.375-3.33l.06-.12.58-.02a4.648,4.648,0,0,1,.715-1.05,4.578,4.578,0,0,1,.895-.755,5.623,5.623,0,0,1,1.06-.53,10.958,10.958,0,0,1,1.21-.375V-6.2q-.3,0-.61-.01l-.66-.02-.76-.02q-.41-.01-.91-.01-.62,0-1.27.035t-1.265.13a9.194,9.194,0,0,0-1.165.255,4,4,0,0,0-.955.405,2.142,2.142,0,0,0-.645.58,1.329,1.329,0,0,0-.24.8.979.979,0,0,0,.15.555,1.171,1.171,0,0,0,.375.36,1.557,1.557,0,0,0,.5.19,2.679,2.679,0,0,0,.525.055,3.117,3.117,0,0,0,.775-.11,3.314,3.314,0,0,0,.805-.325,2.129,2.129,0,0,0,.635-.54,1.174,1.174,0,0,0,.255-.745,2.149,2.149,0,0,0-.035-.39,1.64,1.64,0,0,0-.115-.37l.09-.05a1.75,1.75,0,0,1,.115.3,1.9,1.9,0,0,1,.065.555,1.8,1.8,0,0,1-.235.91,2.361,2.361,0,0,1-.61.7,2.926,2.926,0,0,1-.835.45,2.757,2.757,0,0,1-.91.16,1.733,1.733,0,0,1-.6-.11,1.828,1.828,0,0,1-.55-.32,1.625,1.625,0,0,1-.4-.515A1.513,1.513,0,0,1-21.495-4a1.95,1.95,0,0,1,.36-1.17,3.192,3.192,0,0,1,.94-.855,6.022,6.022,0,0,1,1.315-.59,11.714,11.714,0,0,1,1.48-.37,13.527,13.527,0,0,1,1.44-.185q.695-.05,1.185-.05.7,0,1.25.01t.985.025q.435.015.775.03t.62.015a1.439,1.439,0,0,1,.25.025.952.952,0,0,1,.26.085.68.68,0,0,1,.2.155.34.34,0,0,1,.085.235.387.387,0,0,1-.13.3.818.818,0,0,1-.32.17,1.913,1.913,0,0,1-.39.07q-.2.015-.34.015-.11,0-.25-.01l-.28-.02-.265-.02q-.125-.01-.2-.01a1.563,1.563,0,0,0-.88.28,4.051,4.051,0,0,0-.78.685,6.123,6.123,0,0,0-.64.86q-.28.455-.48.8a4.491,4.491,0,0,0,.545-.08,1.084,1.084,0,0,0,.335-.12.372.372,0,0,0,.105-.11l.115-.17a1.269,1.269,0,0,1,.125-.16.186.186,0,0,1,.135-.07h1.1a12.763,12.763,0,0,0-1.24,1.16,9.235,9.235,0,0,0-1.04,1.34l-.09.01a4.182,4.182,0,0,1,.28-.89q.19-.43.39-.86a2.357,2.357,0,0,0-.375.04,3.711,3.711,0,0,1-.435.05,9.794,9.794,0,0,1-.86,1.405,5.49,5.49,0,0,1-1.06,1.09,4.568,4.568,0,0,1-1.32.7,5.043,5.043,0,0,1-1.64.25A3.187,3.187,0,0,1-20.86.015,2.041,2.041,0,0,1-21.455-.2,1.337,1.337,0,0,1-21.9-.6a1.014,1.014,0,0,1-.175-.6.694.694,0,0,1,.06-.285.9.9,0,0,1,.155-.24.738.738,0,0,1,.23-.17.649.649,0,0,1,.285-.065.67.67,0,0,1,.445.155.525.525,0,0,1,.185.425.651.651,0,0,1-.115.39.633.633,0,0,1-.325.23A.72.72,0,0,0-20.82-.2a1.313,1.313,0,0,0,.655.155A2.024,2.024,0,0,0-18.99-.38a3.884,3.884,0,0,0,.88-.84A7.913,7.913,0,0,0-17.415-2.3q.31-.575.61-1.055Zm6.6-.35-.35.54q-.48.72-.77,1.175t-.45.74a2.674,2.674,0,0,0-.21.44.91.91,0,0,0-.05.275.3.3,0,0,0,.075.21.255.255,0,0,0,.195.08.978.978,0,0,0,.515-.225,4.189,4.189,0,0,0,.69-.655,10.963,10.963,0,0,0,.8-1.05A14.1,14.1,0,0,0-9.5-3.56l1.45-.04q-.09.15-.255.4t-.37.545q-.2.3-.42.625t-.39.635a5.037,5.037,0,0,0-.285.57,1.2,1.2,0,0,0-.11.435.257.257,0,0,0,.06.2.228.228,0,0,0,.16.055.777.777,0,0,0,.4-.14,3.665,3.665,0,0,0,.48-.365q.255-.225.52-.5t.5-.56q.235-.28.435-.53t.32-.41l.09.08q-.17.2-.39.475t-.475.575q-.255.3-.54.595A5.3,5.3,0,0,1-8.915-.4a3.39,3.39,0,0,1-.605.375,1.4,1.4,0,0,1-.6.145A.943.943,0,0,1-10.5.05a.693.693,0,0,1-.26-.19.816.816,0,0,1-.15-.275,1.02,1.02,0,0,1-.05-.315.986.986,0,0,1,.03-.24,1.882,1.882,0,0,1,.06-.2l-.02-.02q-.22.25-.45.485a4.01,4.01,0,0,1-.48.42,2.489,2.489,0,0,1-.51.295,1.349,1.349,0,0,1-.53.11.754.754,0,0,1-.62-.245.956.956,0,0,1-.2-.625,1.387,1.387,0,0,1,.09-.455,4.7,4.7,0,0,1,.23-.535q.14-.28.315-.57t.335-.545q.16-.255.3-.46t.2-.325ZM-8.8,0l2.02-3.56,1.44-.04-1.53,2.26.02.02A9.71,9.71,0,0,1-5.83-2.59a2.788,2.788,0,0,1,.835-.63,2.628,2.628,0,0,1,.25-.27.807.807,0,0,1,.285-.16,2.023,2.023,0,0,1,.47-.085q.295-.025.8-.045a3.273,3.273,0,0,0-.24.27,2.714,2.714,0,0,0-.22.32,2.088,2.088,0,0,0-.165.35,1.027,1.027,0,0,0-.065.35.761.761,0,0,0,.1.39.359.359,0,0,0,.335.18.749.749,0,0,0,.3-.065,1.433,1.433,0,0,0,.29-.17A2.192,2.192,0,0,0-2.58-2.39q.125-.13.225-.25l.07.06q-.07.08-.2.235a1.766,1.766,0,0,1-.345.305,2.31,2.31,0,0,1-.53.265,2.207,2.207,0,0,1-.755.115,1.244,1.244,0,0,1-.44-.075,1.056,1.056,0,0,1-.335-.2.86.86,0,0,1-.21-.28.791.791,0,0,1-.075-.34,1.125,1.125,0,0,1,.08-.47v-.02a2.746,2.746,0,0,0-.655.53,8.951,8.951,0,0,0-.69.815q-.335.445-.61.89a7.584,7.584,0,0,0-.415.745Zm4.61,0,2.07-3.54L-.7-3.6q-.72,1-1.38,2.04l.02.02q.26-.33.58-.71A7.53,7.53,0,0,1-.81-2.955,4.327,4.327,0,0,1-.08-3.5a1.463,1.463,0,0,1,.745-.22,1.015,1.015,0,0,1,.635.2.7.7,0,0,1,.255.595,1.344,1.344,0,0,1-.2.68A7.391,7.391,0,0,1,.9-1.565q-.25.335-.455.64A1,1,0,0,0,.235-.39.288.288,0,0,0,.29-.215.2.2,0,0,0,.465-.14a.883.883,0,0,0,.5-.2,5.048,5.048,0,0,0,.58-.505q.23-.23.46-.5t.43-.51q.2-.245.36-.45t.25-.325l.09.05q-.34.45-.725.93t-.775.88a4.179,4.179,0,0,1-.8.655A1.491,1.491,0,0,1,.055.12.836.836,0,0,1-.62-.145,1.022,1.022,0,0,1-.845-.83a1.311,1.311,0,0,1,.2-.685,4.7,4.7,0,0,1,.435-.61Q.025-2.41.22-2.65a.733.733,0,0,0,.2-.45q0-.28-.27-.28a.816.816,0,0,0-.44.185,4.5,4.5,0,0,0-.56.485q-.3.3-.61.67t-.585.74q-.275.37-.48.7a5.844,5.844,0,0,0-.3.54ZM4.7-3.6q-.32.51-.63.99t-.55.9q-.24.415-.385.735a1.334,1.334,0,0,0-.145.51.5.5,0,0,0,.05.235.185.185,0,0,0,.18.095A.841.841,0,0,0,3.65-.285a3.412,3.412,0,0,0,.485-.37,6.072,6.072,0,0,0,.5-.51q.25-.285.47-.56t.4-.52q.175-.245.285-.395l.08.03q-.24.34-.6.825a9.163,9.163,0,0,1-.81.945,4.83,4.83,0,0,1-.85.715,1.6,1.6,0,0,1-.87.245.788.788,0,0,1-.62-.235.949.949,0,0,1-.21-.655A2.415,2.415,0,0,1,2.29-1.895q.385-.675.975-1.665Zm-.51-1.56a.674.674,0,0,1,.2-.5.674.674,0,0,1,.5-.2.674.674,0,0,1,.495.2.674.674,0,0,1,.2.5.674.674,0,0,1-.2.495.674.674,0,0,1-.495.2.674.674,0,0,1-.5-.2A.674.674,0,0,1,4.185-5.16Zm.96,1.8.07-.16h.83L6.9-4.97l1.39-.05-.9,1.5h1.37l-.08.16H7.3q-.14.24-.385.63t-.485.81q-.24.42-.42.81a1.619,1.619,0,0,0-.18.64.309.309,0,0,0,.095.25.4.4,0,0,0,.265.08,1.233,1.233,0,0,0,.55-.145A3.51,3.51,0,0,0,7.32-.66a5.448,5.448,0,0,0,.57-.515q.275-.285.52-.565t.445-.525q.2-.245.32-.395l.08.04q-.34.4-.72.88a8.368,8.368,0,0,1-.82.895,4.483,4.483,0,0,1-.95.69A2.3,2.3,0,0,1,5.655.12.886.886,0,0,1,4.97-.125.9.9,0,0,1,4.745-.76,1.449,1.449,0,0,1,4.8-1.155a2.959,2.959,0,0,1,.2-.48q.14-.285.37-.695t.59-1.03Zm5.56-.32-.35.54q-.48.72-.77,1.175t-.45.74a2.674,2.674,0,0,0-.21.44.91.91,0,0,0-.05.275A.3.3,0,0,0,8.95-.3a.255.255,0,0,0,.195.08A.978.978,0,0,0,9.66-.445a4.189,4.189,0,0,0,.69-.655,10.963,10.963,0,0,0,.8-1.05,14.1,14.1,0,0,0,.83-1.41l1.45-.04q-.09.15-.255.4t-.37.545q-.2.3-.42.625t-.39.635a5.037,5.037,0,0,0-.285.57,1.2,1.2,0,0,0-.11.435.257.257,0,0,0,.06.2.228.228,0,0,0,.16.055.777.777,0,0,0,.395-.14,3.665,3.665,0,0,0,.48-.365q.255-.225.52-.5t.5-.56q.235-.28.435-.53t.32-.41l.09.08q-.17.2-.39.475t-.475.575q-.255.3-.54.595a5.3,5.3,0,0,1-.585.525,3.39,3.39,0,0,1-.6.375,1.4,1.4,0,0,1-.605.145.943.943,0,0,1-.38-.07.693.693,0,0,1-.26-.19.816.816,0,0,1-.15-.275,1.02,1.02,0,0,1-.05-.315.986.986,0,0,1,.03-.24,1.882,1.882,0,0,1,.06-.2l-.02-.02q-.22.25-.45.485a4.01,4.01,0,0,1-.48.42,2.489,2.489,0,0,1-.51.295,1.349,1.349,0,0,1-.53.11A.754.754,0,0,1,8-.125.956.956,0,0,1,7.8-.75a1.387,1.387,0,0,1,.09-.455,4.7,4.7,0,0,1,.23-.535q.14-.28.315-.57t.335-.545q.16-.255.3-.46t.2-.325ZM12.675,0,14.7-3.56l1.44-.04-1.53,2.26.02.02A9.71,9.71,0,0,1,15.65-2.59a2.788,2.788,0,0,1,.835-.63,2.629,2.629,0,0,1,.25-.27.807.807,0,0,1,.285-.16,2.023,2.023,0,0,1,.47-.085q.3-.025.8-.045a3.273,3.273,0,0,0-.24.27,2.715,2.715,0,0,0-.22.32,2.088,2.088,0,0,0-.165.35,1.027,1.027,0,0,0-.065.35.761.761,0,0,0,.1.39.359.359,0,0,0,.335.18.749.749,0,0,0,.3-.065,1.433,1.433,0,0,0,.29-.17A2.192,2.192,0,0,0,18.9-2.39q.125-.13.225-.25l.07.06q-.07.08-.2.235a1.766,1.766,0,0,1-.345.305,2.31,2.31,0,0,1-.53.265,2.207,2.207,0,0,1-.755.115,1.244,1.244,0,0,1-.44-.075,1.056,1.056,0,0,1-.335-.2.86.86,0,0,1-.21-.28.791.791,0,0,1-.075-.34,1.125,1.125,0,0,1,.08-.47v-.02a2.746,2.746,0,0,0-.655.53,8.951,8.951,0,0,0-.69.815q-.335.445-.61.89a7.584,7.584,0,0,0-.415.745ZM23.5-2.57q-.23.33-.515.665t-.645.685A6.014,6.014,0,0,1,21-.22a3.08,3.08,0,0,1-1.45.34A1.533,1.533,0,0,1,18.5-.2a1.179,1.179,0,0,1-.36-.93,1.827,1.827,0,0,1,.3-1,3.2,3.2,0,0,1,.755-.82,4.032,4.032,0,0,1,.99-.56,2.78,2.78,0,0,1,1.015-.21,1.764,1.764,0,0,1,.79.155.525.525,0,0,1,.31.505.756.756,0,0,1-.34.61A3.365,3.365,0,0,1,21.15-2a7.079,7.079,0,0,1-.935.3q-.47.115-.74.175-.02.1-.03.2t-.01.2a1.588,1.588,0,0,0,.04.355.82.82,0,0,0,.135.305.7.7,0,0,0,.25.21.834.834,0,0,0,.385.08,1.9,1.9,0,0,0,1.01-.345,7.4,7.4,0,0,0,1.09-.865,8.374,8.374,0,0,0,.615-.66q.265-.32.445-.58Zm-2.2-.75a.247.247,0,0,0-.28-.28.747.747,0,0,0-.475.225,2.88,2.88,0,0,0-.47.54,5.059,5.059,0,0,0-.375.645,2.253,2.253,0,0,0-.2.55,2.74,2.74,0,0,0,.755-.275,2.618,2.618,0,0,0,.57-.415,1.665,1.665,0,0,0,.355-.49A1.192,1.192,0,0,0,21.3-3.32Z" transform="translate(-7794 -44)" fill="#a98e69"></path>
  </g>
</svg>
